<svg xmlns="http://www.w3.org/2000/svg" viewBox="0 0 280 228" xml:space="preserve" class="tw-icon">
<path d="M251.4,56.9c0.1,2.5,0.2,5,0.2,7.5c0,75.9-57.8,163.4-163.5,163.4c-32.4,0-62.6-9.5-88.1-25.8
	c4.5,0.5,9.1,0.8,13.7,0.8c26.9,0,51.7-9.2,71.4-24.6c-25.1-0.5-46.4-17.1-53.7-39.9c3.5,0.7,7.1,1,10.8,1c5.2,0,10.3-0.7,15.1-2
	C31,132,11.2,108.8,11.2,81c0-0.2,0-0.5,0-0.7c7.7,4.3,16.6,6.9,26,7.2C21.9,77.2,11.7,59.6,11.7,39.6c0-10.5,2.8-20.4,7.8-28.9
	c28.3,34.8,70.7,57.6,118.4,60c-1-4.2-1.5-8.6-1.5-13.1c0-31.7,25.7-57.4,57.4-57.4c16.5,0,31.4,7,41.9,18.1
	c13.1-2.6,25.4-7.3,36.5-13.9C268,17.8,258.9,29.1,247,36.2c11.6-1.4,22.7-4.5,33-9C272.3,38.7,262.6,48.8,251.4,56.9z"/>
</svg>
