<svg xmlns="http://www.w3.org/2000/svg" viewBox="0 0 360 203.3" xml:space="preserve" class="vk-icon">
<path d="M309.7,129.4c11.9,11.7,24.6,22.6,35.2,35.4c4.7,5.7,9.2,11.6,12.6,18.2c4.9,9.4,0.5,19.8-8,20.3h-52.3
	c-13.5,1.1-24.3-4.3-33.3-13.6c-7.3-7.4-14-15.3-21-22.9c-2.9-3.1-5.9-6.1-9.4-8.4c-7.1-4.7-13.4-3.2-17.5,4.2
	c-4.2,7.6-5.1,16-5.5,24.5c-0.6,12.4-4.3,15.6-16.7,16.2c-26.5,1.2-51.6-2.8-75-16.1c-20.6-11.8-36.5-28.4-50.4-47.2
	C41.4,103.3,20.8,63.1,2.1,21.6C-2.1,12.3,1,7.4,11.3,7.2c17.1-0.3,34.1-0.3,51.3,0c7,0.1,11.6,4.1,14.3,10.7
	c9.3,22.8,20.6,44.3,34.7,64.4c3.8,5.3,7.7,10.7,13.2,14.5c6.1,4.2,10.7,2.8,13.6-4c1.8-4.3,2.6-8.9,3-13.5
	c1.4-15.8,1.5-31.5-0.8-47.3c-1.5-9.9-7-16.2-16.8-18.1c-5-0.9-4.3-2.8-1.8-5.7c4.2-4.9,8.2-8,16.1-8h59.2c9.3,1.8,11.4,6,12.7,15.4
	l0.1,65.8c-0.1,3.6,1.8,14.4,8.4,16.8c5.2,1.7,8.7-2.5,11.8-5.8c14.2-15.1,24.3-32.8,33.3-51.2c4-8.1,7.5-16.5,10.8-25
	c2.5-6.2,6.4-9.3,13.4-9.2l57,0.1c1.7,0,3.4,0,5.1,0.3c9.6,1.6,12.3,5.8,9.3,15.2c-4.7,14.7-13.8,27-22.7,39.2
	c-9.5,13.2-19.7,25.9-29.1,39C298.2,112.8,298.9,118.9,309.7,129.4z"/>
</svg>
